/* XPM */
static char *_5eb1a93aa6e46549e13197ae4c80301[] = {
/* columns rows colors chars-per-pixel */
"200 50 3 1 ",
"  c #474B60",
". c #53566A",
"X c #5E6274",
/* pixels */
"X......................................................................................................................................................................................................X",
".                                                                                                                                                                                                      .",
".                                                                                                                                                                                                      .",
".                                                                                                                                                                                                      .",
".                                                                                                                                                                                                      .",
".                                                                                                                                                                                                      .",
".                                                                                                                                                                                                      .",
".                                                                                                                                                                                                      .",
".                                                                                                                                                                                                      .",
".                                                                                                                                                                                                      .",
".                                                                                                                                                                                                      .",
".                                                                                                                                                                                                      .",
".                                                                                                                                                                                                      .",
".                                                                                                                                                                                                      .",
".                                                                                                                                                                                                      .",
".                                                                                                                                                                                                      .",
".                                                                                                                                                                                                      .",
".                                                                                                                                                                                                      .",
".                                                                                                                                                                                                      .",
".                                                                                                                                                                                                      .",
".                                                                                                                                                                                                      .",
".                                                                                                                                                                                                      .",
".                                                                                                                                                                                                      .",
".                                                                                                                                                                                                      .",
".                                                                                                                                                                                                      .",
".                                                                                                                                                                                                      .",
".                                                                                                                                                                                                      .",
".                                                                                                                                                                                                      .",
".                                                                                                                                                                                                      .",
".                                                                                                                                                                                                      .",
".                                                                                                                                                                                                      .",
".                                                                                                                                                                                                      .",
".                                                                                                                                                                                                      .",
".                                                                                                                                                                                                      .",
".                                                                                                                                                                                                      .",
".                                                                                                                                                                                                      .",
".                                                                                                                                                                                                      .",
".                                                                                                                                                                                                      .",
".                                                                                                                                                                                                      .",
".                                                                                                                                                                                                      .",
".                                                                                                                                                                                                      .",
".                                                                                                                                                                                                      .",
".                                                                                                                                                                                                      .",
".                                                                                                                                                                                                      .",
".                                                                                                                                                                                                      .",
".                                                                                                                                                                                                      .",
".                                                                                                                                                                                                      .",
".                                                                                                                                                                                                      .",
".                                                                                                                                                                                                      .",
"X......................................................................................................................................................................................................X"
};
